<svg width="222" height="36" viewBox="0 0 222 36" fill="none" xmlns="http://www.w3.org/2000/svg">
<path d="M0.125 6.95739V1.81818H22.2543V6.95739H14.3153V28H8.0767V6.95739H0.125ZM31.5962 16.8011V28H25.3448V1.81818H31.3917V11.9688H31.609C32.0522 10.7585 32.7766 9.8125 33.7823 9.13068C34.7965 8.44886 36.0366 8.10795 37.5025 8.10795C38.8832 8.10795 40.0849 8.41477 41.1076 9.02841C42.1303 9.63352 42.9229 10.4901 43.4854 11.598C44.0565 12.706 44.3377 14.0014 44.3292 15.4844V28H38.0778V16.7116C38.0863 15.6207 37.8136 14.7685 37.2596 14.1548C36.7056 13.5412 35.9258 13.2344 34.9201 13.2344C34.2639 13.2344 33.6843 13.3793 33.1815 13.669C32.6871 13.9503 32.2994 14.3551 32.0181 14.8835C31.7454 15.4119 31.6048 16.0511 31.5962 16.8011ZM57.4105 28.3707C55.3565 28.3707 53.5838 27.9659 52.0923 27.1562C50.6094 26.3381 49.4673 25.1747 48.6662 23.6662C47.8736 22.1491 47.4773 20.3466 47.4773 18.2585C47.4773 16.2301 47.8778 14.4574 48.679 12.9403C49.4801 11.4148 50.6094 10.2301 52.0668 9.38636C53.5241 8.53409 55.2415 8.10795 57.2188 8.10795C58.6165 8.10795 59.8949 8.32528 61.054 8.75994C62.2131 9.1946 63.2145 9.83807 64.0582 10.6903C64.902 11.5426 65.5582 12.5952 66.027 13.848C66.4957 15.0923 66.7301 16.5199 66.7301 18.1307V19.6903H49.6634V16.0597H60.9134C60.9048 15.3949 60.7472 14.8026 60.4403 14.2827C60.1335 13.7628 59.7116 13.358 59.1747 13.0682C58.6463 12.7699 58.0369 12.6207 57.3466 12.6207C56.6477 12.6207 56.0213 12.7784 55.4673 13.0938C54.9134 13.4006 54.4744 13.8224 54.1506 14.3594C53.8267 14.8878 53.6563 15.4886 53.6392 16.1619V19.8565C53.6392 20.6577 53.7969 21.3608 54.1122 21.9659C54.4276 22.5625 54.875 23.027 55.4545 23.3594C56.0341 23.6918 56.7244 23.858 57.5256 23.858C58.0795 23.858 58.5824 23.7812 59.0341 23.6278C59.4858 23.4744 59.8736 23.2486 60.1974 22.9503C60.5213 22.652 60.7642 22.2855 60.9261 21.8509L66.6662 22.017C66.4276 23.304 65.9034 24.4247 65.0938 25.3793C64.2926 26.3253 63.2401 27.0625 61.9361 27.5909C60.6321 28.1108 59.1236 28.3707 57.4105 28.3707ZM79.0891 28.3707C77.0266 28.3707 75.2539 27.9489 73.771 27.1051C72.2965 26.2528 71.1587 25.0682 70.3576 23.5511C69.565 22.0256 69.1687 20.2571 69.1687 18.2457C69.1687 16.2259 69.565 14.4574 70.3576 12.9403C71.1587 11.4148 72.2965 10.2301 73.771 9.38636C75.2539 8.53409 77.0266 8.10795 79.0891 8.10795C81.1516 8.10795 82.9201 8.53409 84.3945 9.38636C85.8775 10.2301 87.0153 11.4148 87.8079 12.9403C88.609 14.4574 89.0096 16.2259 89.0096 18.2457C89.0096 20.2571 88.609 22.0256 87.8079 23.5511C87.0153 25.0682 85.8775 26.2528 84.3945 27.1051C82.9201 27.9489 81.1516 28.3707 79.0891 28.3707ZM79.1275 23.6534C79.8775 23.6534 80.5124 23.4233 81.0323 22.9631C81.5522 22.5028 81.9485 21.8636 82.2212 21.0455C82.5025 20.2273 82.6431 19.2812 82.6431 18.2074C82.6431 17.1165 82.5025 16.1619 82.2212 15.3438C81.9485 14.5256 81.5522 13.8864 81.0323 13.4261C80.5124 12.9659 79.8775 12.7358 79.1275 12.7358C78.3519 12.7358 77.6957 12.9659 77.1587 13.4261C76.6303 13.8864 76.2255 14.5256 75.9442 15.3438C75.6715 16.1619 75.5352 17.1165 75.5352 18.2074C75.5352 19.2812 75.6715 20.2273 75.9442 21.0455C76.2255 21.8636 76.6303 22.5028 77.1587 22.9631C77.6957 23.4233 78.3519 23.6534 79.1275 23.6534ZM92.212 35.3636V8.36364H98.3995V11.7259H98.5913C98.8469 11.1293 99.2092 10.554 99.6779 10C100.155 9.44602 100.76 8.99432 101.493 8.64489C102.235 8.28693 103.121 8.10795 104.152 8.10795C105.516 8.10795 106.79 8.46591 107.975 9.18182C109.168 9.89773 110.131 11.0014 110.864 12.4929C111.597 13.9844 111.963 15.8849 111.963 18.1946C111.963 20.419 111.61 22.2812 110.902 23.7812C110.203 25.2812 109.257 26.4062 108.064 27.1562C106.88 27.9062 105.563 28.2812 104.114 28.2812C103.125 28.2812 102.269 28.1193 101.544 27.7955C100.82 27.4716 100.211 27.0455 99.7163 26.517C99.2305 25.9886 98.8555 25.4219 98.5913 24.8168H98.4634V35.3636H92.212ZM98.3356 18.1818C98.3356 19.2386 98.4762 20.1591 98.7575 20.9432C99.0472 21.7273 99.4606 22.3366 99.9975 22.7713C100.543 23.1974 101.195 23.4105 101.953 23.4105C102.721 23.4105 103.373 23.1974 103.909 22.7713C104.446 22.3366 104.851 21.7273 105.124 20.9432C105.405 20.1591 105.546 19.2386 105.546 18.1818C105.546 17.125 105.405 16.2088 105.124 15.4332C104.851 14.6577 104.446 14.0568 103.909 13.6307C103.381 13.2045 102.729 12.9915 101.953 12.9915C101.186 12.9915 100.534 13.2003 99.9975 13.6179C99.4606 14.0355 99.0472 14.6321 98.7575 15.4077C98.4762 16.1832 98.3356 17.108 98.3356 18.1818ZM121.491 16.8011V28H115.239V1.81818H121.286V11.9688H121.504C121.947 10.7585 122.671 9.8125 123.677 9.13068C124.691 8.44886 125.931 8.10795 127.397 8.10795C128.778 8.10795 129.979 8.41477 131.002 9.02841C132.025 9.63352 132.817 10.4901 133.38 11.598C133.951 12.706 134.232 14.0014 134.224 15.4844V28H127.972V16.7116C127.981 15.6207 127.708 14.7685 127.154 14.1548C126.6 13.5412 125.82 13.2344 124.815 13.2344C124.158 13.2344 123.579 13.3793 123.076 13.669C122.582 13.9503 122.194 14.3551 121.913 14.8835C121.64 15.4119 121.499 16.0511 121.491 16.8011ZM138.126 28V8.36364H144.377V28H138.126ZM141.258 6.07528C140.38 6.07528 139.626 5.78551 138.995 5.20597C138.365 4.6179 138.049 3.91051 138.049 3.08381C138.049 2.26562 138.365 1.56676 138.995 0.987216C139.626 0.399147 140.38 0.105112 141.258 0.105112C142.145 0.105112 142.899 0.399147 143.521 0.987216C144.152 1.56676 144.467 2.26562 144.467 3.08381C144.467 3.91051 144.152 4.6179 143.521 5.20597C142.899 5.78551 142.145 6.07528 141.258 6.07528ZM154.608 1.81818V28H148.357V1.81818H154.608ZM171.256 19.5241V8.36364H177.495V28H171.537V24.3438H171.333C170.898 25.5455 170.157 26.5 169.108 27.2074C168.069 27.9062 166.811 28.2557 165.337 28.2557C163.999 28.2557 162.823 27.9489 161.809 27.3352C160.794 26.7216 160.006 25.8651 159.444 24.7656C158.881 23.6577 158.596 22.3622 158.587 20.8793V8.36364H164.838V19.652C164.847 20.7173 165.128 21.5568 165.682 22.1705C166.236 22.7841 166.99 23.0909 167.945 23.0909C168.567 23.0909 169.125 22.9545 169.62 22.6818C170.123 22.4006 170.519 21.9957 170.809 21.4673C171.107 20.9304 171.256 20.2827 171.256 19.5241ZM190.64 28.3707C188.577 28.3707 186.805 27.9489 185.322 27.1051C183.847 26.2528 182.71 25.0682 181.908 23.5511C181.116 22.0256 180.719 20.2571 180.719 18.2457C180.719 16.2259 181.116 14.4574 181.908 12.9403C182.71 11.4148 183.847 10.2301 185.322 9.38636C186.805 8.53409 188.577 8.10795 190.64 8.10795C192.702 8.10795 194.471 8.53409 195.945 9.38636C197.428 10.2301 198.566 11.4148 199.359 12.9403C200.16 14.4574 200.56 16.2259 200.56 18.2457C200.56 20.2571 200.16 22.0256 199.359 23.5511C198.566 25.0682 197.428 26.2528 195.945 27.1051C194.471 27.9489 192.702 28.3707 190.64 28.3707ZM190.678 23.6534C191.428 23.6534 192.063 23.4233 192.583 22.9631C193.103 22.5028 193.499 21.8636 193.772 21.0455C194.053 20.2273 194.194 19.2812 194.194 18.2074C194.194 17.1165 194.053 16.1619 193.772 15.3438C193.499 14.5256 193.103 13.8864 192.583 13.4261C192.063 12.9659 191.428 12.7358 190.678 12.7358C189.903 12.7358 189.246 12.9659 188.71 13.4261C188.181 13.8864 187.776 14.5256 187.495 15.3438C187.222 16.1619 187.086 17.1165 187.086 18.2074C187.086 19.2812 187.222 20.2273 187.495 21.0455C187.776 21.8636 188.181 22.5028 188.71 22.9631C189.246 23.4233 189.903 23.6534 190.678 23.6534ZM220.906 14.3594L215.166 14.5128C215.107 14.1037 214.945 13.7415 214.68 13.4261C214.416 13.1023 214.071 12.8509 213.645 12.6719C213.227 12.4844 212.741 12.3906 212.188 12.3906C211.463 12.3906 210.845 12.5355 210.334 12.8253C209.831 13.1151 209.584 13.5071 209.592 14.0014C209.584 14.3849 209.737 14.7173 210.053 14.9986C210.376 15.2798 210.952 15.5057 211.778 15.6761L215.562 16.392C217.523 16.767 218.98 17.3892 219.935 18.2585C220.898 19.1278 221.384 20.2784 221.392 21.7102C221.384 23.0568 220.983 24.2287 220.19 25.2259C219.406 26.223 218.332 26.9986 216.969 27.5526C215.605 28.098 214.045 28.3707 212.29 28.3707C209.486 28.3707 207.274 27.7955 205.655 26.6449C204.044 25.4858 203.124 23.9347 202.893 21.9915L209.068 21.8381C209.205 22.554 209.558 23.0994 210.129 23.4744C210.7 23.8494 211.429 24.0369 212.315 24.0369C213.116 24.0369 213.768 23.8878 214.271 23.5895C214.774 23.2912 215.03 22.8949 215.038 22.4006C215.03 21.9574 214.834 21.6037 214.45 21.3395C214.067 21.0668 213.466 20.8537 212.648 20.7003L209.222 20.0483C207.253 19.6903 205.787 19.0298 204.824 18.0668C203.861 17.0952 203.384 15.8594 203.392 14.3594C203.384 13.0469 203.733 11.9261 204.44 10.9972C205.148 10.0597 206.153 9.34375 207.457 8.84943C208.761 8.35511 210.3 8.10795 212.072 8.10795C214.732 8.10795 216.828 8.66619 218.362 9.78267C219.896 10.8906 220.744 12.4162 220.906 14.3594Z" fill="black" style="fill:black;fill-opacity:1;"/>
</svg>
